<mxfile host="app.diagrams.net" modified="2020-10-03T17:15:44.883Z" agent="5.0 (X11; Linux x86_64) AppleWebKit/537.36 (KHTML, like Gecko) Chrome/85.0.4183.83 Safari/537.36" etag="nlFv4VE-WUkp8cF_eAmQ" version="13.7.7" type="github">
  <diagram id="TW4SknuELug2uuoj7dxj" name="Page-1">
    <mxGraphModel dx="1422" dy="802" grid="1" gridSize="10" guides="1" tooltips="1" connect="1" arrows="1" fold="1" page="1" pageScale="1" pageWidth="1169" pageHeight="827" math="0" shadow="0">
      <root>
        <mxCell id="0" />
        <mxCell id="1" parent="0" />
        <mxCell id="WNs4VfGeRKVJ7KzrN_8F-3" value="" style="rounded=0;whiteSpace=wrap;html=1;fillColor=#d5e8d4;strokeColor=#82b366;" parent="1" vertex="1">
          <mxGeometry x="800" y="183" width="280" height="40" as="geometry" />
        </mxCell>
        <mxCell id="WNs4VfGeRKVJ7KzrN_8F-4" value="" style="rounded=0;whiteSpace=wrap;html=1;fillColor=#d5e8d4;strokeColor=#82b366;" parent="1" vertex="1">
          <mxGeometry x="80" y="120" width="280" height="40" as="geometry" />
        </mxCell>
        <mxCell id="WNs4VfGeRKVJ7KzrN_8F-6" value="" style="rounded=0;whiteSpace=wrap;html=1;fillColor=#ffe6cc;strokeColor=#d79b00;" parent="1" vertex="1">
          <mxGeometry x="800" y="120" width="280" height="40" as="geometry" />
        </mxCell>
        <mxCell id="WNs4VfGeRKVJ7KzrN_8F-7" value="" style="rounded=0;whiteSpace=wrap;html=1;fillColor=#ffe6cc;strokeColor=#d79b00;" parent="1" vertex="1">
          <mxGeometry x="80" y="183" width="280" height="40" as="geometry" />
        </mxCell>
        <mxCell id="WNs4VfGeRKVJ7KzrN_8F-8" value="" style="rounded=0;whiteSpace=wrap;html=1;strokeColor=#82b366;fillColor=#97D077;" parent="1" vertex="1">
          <mxGeometry x="80" y="246" width="280" height="40" as="geometry" />
        </mxCell>
        <mxCell id="WNs4VfGeRKVJ7KzrN_8F-9" value="" style="whiteSpace=wrap;html=1;aspect=fixed;" parent="1" vertex="1">
          <mxGeometry x="560" y="120" width="40" height="40" as="geometry" />
        </mxCell>
        <mxCell id="WNs4VfGeRKVJ7KzrN_8F-10" value="" style="whiteSpace=wrap;html=1;aspect=fixed;" parent="1" vertex="1">
          <mxGeometry x="560" y="183" width="40" height="40" as="geometry" />
        </mxCell>
        <mxCell id="WNs4VfGeRKVJ7KzrN_8F-11" value="&lt;font style=&quot;font-size: 30px&quot;&gt;V&lt;/font&gt;" style="whiteSpace=wrap;html=1;aspect=fixed;" parent="1" vertex="1">
          <mxGeometry x="440" y="246" width="40" height="40" as="geometry" />
        </mxCell>
        <mxCell id="WNs4VfGeRKVJ7KzrN_8F-12" value="" style="rounded=0;whiteSpace=wrap;html=1;fillColor=#ffe6cc;strokeColor=#d79b00;" parent="1" vertex="1">
          <mxGeometry x="800" y="246" width="280" height="40" as="geometry" />
        </mxCell>
        <mxCell id="WNs4VfGeRKVJ7KzrN_8F-15" value="" style="rounded=0;whiteSpace=wrap;html=1;strokeColor=#d79b00;fillColor=#FFD966;" parent="1" vertex="1">
          <mxGeometry x="80" y="309" width="280" height="40" as="geometry" />
        </mxCell>
        <mxCell id="WNs4VfGeRKVJ7KzrN_8F-16" value="&lt;font style=&quot;font-size: 30px&quot;&gt;V&lt;/font&gt;" style="whiteSpace=wrap;html=1;aspect=fixed;" parent="1" vertex="1">
          <mxGeometry x="440" y="309" width="40" height="40" as="geometry" />
        </mxCell>
        <mxCell id="WNs4VfGeRKVJ7KzrN_8F-17" value="" style="rounded=0;whiteSpace=wrap;html=1;strokeColor=#82b366;fillColor=#97D077;" parent="1" vertex="1">
          <mxGeometry x="80" y="371" width="280" height="40" as="geometry" />
        </mxCell>
        <mxCell id="WNs4VfGeRKVJ7KzrN_8F-18" value="&lt;font style=&quot;font-size: 30px&quot;&gt;V&lt;/font&gt;" style="whiteSpace=wrap;html=1;aspect=fixed;" parent="1" vertex="1">
          <mxGeometry x="440" y="371" width="40" height="40" as="geometry" />
        </mxCell>
        <mxCell id="WNs4VfGeRKVJ7KzrN_8F-19" value="" style="rounded=0;whiteSpace=wrap;html=1;fillColor=#ffe6cc;strokeColor=#d79b00;" parent="1" vertex="1">
          <mxGeometry x="800" y="371" width="280" height="40" as="geometry" />
        </mxCell>
        <mxCell id="WNs4VfGeRKVJ7KzrN_8F-21" value="" style="rounded=0;whiteSpace=wrap;html=1;strokeColor=#d79b00;fillColor=#FFD966;" parent="1" vertex="1">
          <mxGeometry x="80" y="434" width="280" height="40" as="geometry" />
        </mxCell>
        <mxCell id="WNs4VfGeRKVJ7KzrN_8F-22" value="&lt;font style=&quot;font-size: 30px&quot;&gt;V&lt;/font&gt;" style="whiteSpace=wrap;html=1;aspect=fixed;" parent="1" vertex="1">
          <mxGeometry x="440" y="434" width="40" height="40" as="geometry" />
        </mxCell>
        <mxCell id="WNs4VfGeRKVJ7KzrN_8F-26" value="" style="rounded=0;whiteSpace=wrap;html=1;strokeColor=#82b366;fillColor=#97D077;" parent="1" vertex="1">
          <mxGeometry x="80" y="497" width="280" height="40" as="geometry" />
        </mxCell>
        <mxCell id="WNs4VfGeRKVJ7KzrN_8F-27" value="" style="rounded=0;whiteSpace=wrap;html=1;fillColor=#ffe6cc;strokeColor=#d79b00;" parent="1" vertex="1">
          <mxGeometry x="800" y="497" width="280" height="40" as="geometry" />
        </mxCell>
        <mxCell id="WNs4VfGeRKVJ7KzrN_8F-28" value="" style="whiteSpace=wrap;html=1;aspect=fixed;" parent="1" vertex="1">
          <mxGeometry x="560" y="497" width="40" height="40" as="geometry" />
        </mxCell>
        <mxCell id="WNs4VfGeRKVJ7KzrN_8F-29" value="" style="rounded=0;whiteSpace=wrap;html=1;strokeColor=#82b366;fillColor=#97D077;" parent="1" vertex="1">
          <mxGeometry x="800" y="560" width="280" height="40" as="geometry" />
        </mxCell>
        <mxCell id="WNs4VfGeRKVJ7KzrN_8F-30" value="" style="rounded=0;whiteSpace=wrap;html=1;fillColor=#ffe6cc;strokeColor=#d79b00;" parent="1" vertex="1">
          <mxGeometry x="80" y="560" width="280" height="40" as="geometry" />
        </mxCell>
        <mxCell id="WNs4VfGeRKVJ7KzrN_8F-31" value="&lt;font style=&quot;font-size: 30px&quot;&gt;V&lt;/font&gt;" style="whiteSpace=wrap;html=1;aspect=fixed;" parent="1" vertex="1">
          <mxGeometry x="680" y="560" width="40" height="40" as="geometry" />
        </mxCell>
        <mxCell id="WNs4VfGeRKVJ7KzrN_8F-14" value="" style="rounded=0;whiteSpace=wrap;html=1;fillColor=#d5e8d4;strokeColor=#82b366;fontStyle=4" parent="1" vertex="1">
          <mxGeometry x="800" y="309" width="280" height="40" as="geometry" />
        </mxCell>
        <mxCell id="WNs4VfGeRKVJ7KzrN_8F-13" value="" style="shape=mxgraph.bpmn.loop;html=1;outlineConnect=0;fillColor=#97D077;aspect=fixed;strokeWidth=4;strokeColor=#006600;" parent="1" vertex="1">
          <mxGeometry x="840" y="311.5" width="35" height="35" as="geometry" />
        </mxCell>
        <mxCell id="WNs4VfGeRKVJ7KzrN_8F-35" value="" style="rounded=0;whiteSpace=wrap;html=1;fillColor=#d5e8d4;strokeColor=#82b366;" parent="1" vertex="1">
          <mxGeometry x="800" y="434" width="280" height="40" as="geometry" />
        </mxCell>
        <mxCell id="WNs4VfGeRKVJ7KzrN_8F-25" value="" style="shape=mxgraph.bpmn.loop;html=1;outlineConnect=0;fillColor=#97D077;aspect=fixed;strokeWidth=4;strokeColor=#006600;" parent="1" vertex="1">
          <mxGeometry x="840" y="436.5" width="35" height="35" as="geometry" />
        </mxCell>
        <mxCell id="QQ3Ofn4rccTjiineWkrD-2" value="&lt;font style=&quot;font-size: 28px&quot;&gt;Поток 1&lt;/font&gt;" style="text;html=1;strokeColor=none;fillColor=none;align=center;verticalAlign=middle;whiteSpace=wrap;rounded=0;" vertex="1" parent="1">
          <mxGeometry x="80" y="50" width="280" height="20" as="geometry" />
        </mxCell>
        <mxCell id="QQ3Ofn4rccTjiineWkrD-3" value="&lt;font style=&quot;font-size: 28px&quot;&gt;Поток 2&lt;/font&gt;" style="text;html=1;strokeColor=none;fillColor=none;align=center;verticalAlign=middle;whiteSpace=wrap;rounded=0;" vertex="1" parent="1">
          <mxGeometry x="800" y="60" width="280" height="20" as="geometry" />
        </mxCell>
      </root>
    </mxGraphModel>
  </diagram>
</mxfile>
